<svg width="288" height="50" viewBox="0 0 288 50" fill="none" xmlns="http://www.w3.org/2000/svg">
<rect width="288" height="50" fill="#1A2236"/>
<path d="M88.2793 23.08C87.9913 22.5253 87.5913 22.1093 87.0793 21.832C86.5673 21.544 85.9753 21.4 85.3033 21.4C84.5673 21.4 83.9113 21.5653 83.3353 21.896C82.7593 22.2267 82.3059 22.696 81.9753 23.304C81.6553 23.912 81.4953 24.616 81.4953 25.416C81.4953 26.216 81.6553 26.9253 81.9753 27.544C82.3059 28.152 82.7593 28.6213 83.3353 28.952C83.9113 29.2827 84.5673 29.448 85.3033 29.448C86.2953 29.448 87.1006 29.1707 87.7193 28.616C88.3379 28.0613 88.7166 27.3093 88.8553 26.36H84.6793V24.904H90.8073V26.328C90.6899 27.192 90.3806 27.9867 89.8793 28.712C89.3886 29.4373 88.7433 30.0187 87.9433 30.456C87.1539 30.8827 86.2739 31.096 85.3033 31.096C84.2579 31.096 83.3033 30.856 82.4393 30.376C81.5753 29.8853 80.8873 29.208 80.3753 28.344C79.8739 27.48 79.6233 26.504 79.6233 25.416C79.6233 24.328 79.8739 23.352 80.3753 22.488C80.8873 21.624 81.5753 20.952 82.4393 20.472C83.3139 19.9813 84.2686 19.736 85.3033 19.736C86.4873 19.736 87.5379 20.0293 88.4553 20.616C89.3833 21.192 90.0553 22.0133 90.4713 23.08H88.2793ZM100.686 26.376C100.686 26.7067 100.665 27.0053 100.622 27.272H93.8863C93.9396 27.976 94.2009 28.5413 94.6703 28.968C95.1396 29.3947 95.7156 29.608 96.3983 29.608C97.3796 29.608 98.0729 29.1973 98.4783 28.376H100.446C100.18 29.1867 99.6943 29.8533 98.9903 30.376C98.2969 30.888 97.4329 31.144 96.3983 31.144C95.5556 31.144 94.7983 30.9573 94.1263 30.584C93.4649 30.2 92.9423 29.6667 92.5583 28.984C92.1849 28.2907 91.9983 27.4907 91.9983 26.584C91.9983 25.6773 92.1796 24.8827 92.5423 24.2C92.9156 23.5067 93.4329 22.9733 94.0943 22.6C94.7663 22.2267 95.5343 22.04 96.3983 22.04C97.2303 22.04 97.9716 22.2213 98.6223 22.584C99.2729 22.9467 99.7796 23.4587 100.142 24.12C100.505 24.7707 100.686 25.5227 100.686 26.376ZM98.7823 25.8C98.7716 25.128 98.5316 24.5893 98.0623 24.184C97.5929 23.7787 97.0116 23.576 96.3183 23.576C95.6889 23.576 95.1503 23.7787 94.7023 24.184C94.2543 24.5787 93.9876 25.1173 93.9023 25.8H98.7823ZM104.609 23.672V28.552C104.609 28.8827 104.684 29.1227 104.833 29.272C104.993 29.4107 105.26 29.48 105.633 29.48H106.753V31H105.313C104.492 31 103.863 30.808 103.425 30.424C102.988 30.04 102.769 29.416 102.769 28.552V23.672H101.729V22.184H102.769V19.992H104.609V22.184H106.753V23.672H104.609ZM123.263 22.04C123.956 22.04 124.575 22.184 125.119 22.472C125.673 22.76 126.105 23.1867 126.415 23.752C126.735 24.3173 126.895 25 126.895 25.8V31H125.087V26.072C125.087 25.2827 124.889 24.68 124.495 24.264C124.1 23.8373 123.561 23.624 122.879 23.624C122.196 23.624 121.652 23.8373 121.247 24.264C120.852 24.68 120.655 25.2827 120.655 26.072V31H118.847V26.072C118.847 25.2827 118.649 24.68 118.255 24.264C117.86 23.8373 117.321 23.624 116.639 23.624C115.956 23.624 115.412 23.8373 115.007 24.264C114.612 24.68 114.415 25.2827 114.415 26.072V31H112.591V22.184H114.415V23.192C114.713 22.8293 115.092 22.5467 115.551 22.344C116.009 22.1413 116.5 22.04 117.023 22.04C117.727 22.04 118.356 22.1893 118.911 22.488C119.465 22.7867 119.892 23.2187 120.191 23.784C120.457 23.2507 120.873 22.8293 121.439 22.52C122.004 22.2 122.612 22.04 123.263 22.04ZM137.152 22.184L131.744 35.144H129.856L131.648 30.856L128.176 22.184H130.208L132.688 28.904L135.264 22.184H137.152ZM142.076 25.416C142.076 24.328 142.327 23.352 142.828 22.488C143.34 21.624 144.028 20.952 144.892 20.472C145.767 19.9813 146.722 19.736 147.756 19.736C148.94 19.736 149.991 20.0293 150.908 20.616C151.836 21.192 152.508 22.0133 152.924 23.08H150.732C150.444 22.4933 150.044 22.056 149.532 21.768C149.02 21.48 148.428 21.336 147.756 21.336C147.02 21.336 146.364 21.5013 145.788 21.832C145.212 22.1627 144.759 22.6373 144.428 23.256C144.108 23.8747 143.948 24.5947 143.948 25.416C143.948 26.2373 144.108 26.9573 144.428 27.576C144.759 28.1947 145.212 28.6747 145.788 29.016C146.364 29.3467 147.02 29.512 147.756 29.512C148.428 29.512 149.02 29.368 149.532 29.08C150.044 28.792 150.444 28.3547 150.732 27.768H152.924C152.508 28.8347 151.836 29.656 150.908 30.232C149.991 30.808 148.94 31.096 147.756 31.096C146.711 31.096 145.756 30.856 144.892 30.376C144.028 29.8853 143.34 29.208 142.828 28.344C142.327 27.48 142.076 26.504 142.076 25.416ZM164.643 19.88L160.467 31H158.355L154.163 19.88H156.115L159.411 29.128L162.723 19.88H164.643Z" fill="white"/>
<path d="M185 19V37H209V19" stroke="white" stroke-width="2"/>
<path d="M197.662 26.9624L201.91 22.7144L203.324 24.1286L196.662 30.7909L190 24.1286L191.414 22.7144L195.662 26.9625V13L197.662 13V26.9624Z" fill="white"/>
</svg>
